<?xml version="1.0" encoding="UTF-8" standalone="no"?>
<!-- Generator: Adobe Illustrator 19.1.0, SVG Export Plug-In . SVG Version: 6.00 Build 0)  -->

<svg
   xmlns:dc="http://purl.org/dc/elements/1.1/"
   xmlns:cc="http://creativecommons.org/ns#"
   xmlns:rdf="http://www.w3.org/1999/02/22-rdf-syntax-ns#"
   xmlns:svg="http://www.w3.org/2000/svg"
   xmlns="http://www.w3.org/2000/svg"
   xmlns:sodipodi="http://sodipodi.sourceforge.net/DTD/sodipodi-0.dtd"
   xmlns:inkscape="http://www.inkscape.org/namespaces/inkscape"
   version="1.1"
   id="Capa_1"
   x="0px"
   y="0px"
   viewBox="0 0 540.035 540.035"
   style="enable-background:new 0 0 540.035 540.035;"
   xml:space="preserve"
   inkscape:version="0.91 r13725"
   sodipodi:docname="puzzle-piece5.svg"
   inkscape:export-filename="D:\lab\netbeans-projects\puzzled\resources\icons\puzzle_32.png"
   inkscape:export-xdpi="5.2574439"
   inkscape:export-ydpi="5.2574439"><metadata
     id="metadata7307"><rdf:RDF><cc:Work
         rdf:about=""><dc:format>image/svg+xml</dc:format><dc:type
           rdf:resource="http://purl.org/dc/dcmitype/StillImage" /></cc:Work></rdf:RDF></metadata><defs
     id="defs7305" /><sodipodi:namedview
     pagecolor="#ffffff"
     bordercolor="#666666"
     borderopacity="1"
     objecttolerance="10"
     gridtolerance="10"
     guidetolerance="10"
     inkscape:pageopacity="0"
     inkscape:pageshadow="2"
     inkscape:window-width="1536"
     inkscape:window-height="801"
     id="namedview7303"
     showgrid="false"
     inkscape:zoom="1.201774"
     inkscape:cx="270.01749"
     inkscape:cy="270.01749"
     inkscape:window-x="-8"
     inkscape:window-y="-8"
     inkscape:window-maximized="1"
     inkscape:current-layer="Capa_1" /><g
     id="g7269"
     style="fill:#800080"
     inkscape:export-xdpi="5.2574439"
     inkscape:export-ydpi="5.2574439"><path
       d="M538.709,256.144c-5.293-27.274-27.148-49.237-54.44-54.638c-15.825-3.132-31.685-1.026-45.241,6.373   c4.681-36.221,13.502-71.902,26.23-106.053c4.987-13.394-2.016-28.516-15.59-33.737c-36.653-14.132-74.98-23.907-113.938-29.02   c-6.427-0.846-12.889,1.872-16.742,7.111c-3.852,5.221-4.518,11.828-1.818,17.697c2.971,6.463,4.573,13.376,4.735,20.523   c0.306,13.628-4.951,26.752-14.744,36.923c-9.811,10.171-22.701,15.878-36.311,16.094c-14.294,0.486-27.256-5.077-37.247-14.906   c-9.991-9.829-15.5-22.971-15.5-36.995c0-7.543,1.603-14.834,4.753-21.675c2.701-5.833,2.035-12.404-1.782-17.607   c-3.87-5.275-10.315-7.957-16.796-7.147c-38.939,5.113-77.267,14.888-113.92,29.002c-13.574,5.221-20.559,20.343-15.59,33.737   c12.728,34.151,21.549,69.832,26.752,105.837c-14.096-7.183-29.921-9.325-45.799-6.175c-27.274,5.401-49.147,27.364-54.404,54.638   c-4.033,20.919,1.296,42.198,14.636,58.346c13.322,16.167,32.999,25.438,53.936,25.438c10.909,0,21.801-2.592,31.108-7.777   c-4.681,36.221-13.502,71.902-26.23,106.053c-4.987,13.394,2.016,28.516,15.59,33.737c36.653,14.132,74.98,23.889,113.938,29.002   c0.792,0.108,1.566,0.162,2.358,0.162c5.653,0,11.018-2.664,14.403-7.219c3.852-5.221,4.518-11.828,1.818-17.697   c-2.971-6.445-4.573-13.358-4.735-20.505c-0.306-13.646,4.951-26.752,14.762-36.923c9.793-10.171,22.683-15.896,36.293-16.112   c13.88-0.414,27.292,5.077,37.265,14.906s15.482,22.971,15.482,36.995c0,7.543-1.603,14.834-4.753,21.675   c-2.701,5.833-2.035,12.404,1.782,17.607c3.87,5.275,10.333,8.011,16.796,7.147c38.939-5.113,77.267-14.888,113.92-29.002   c13.574-5.239,20.559-20.361,15.59-33.755c-12.746-34.151-21.567-69.832-26.626-105.783c9.686,4.897,20.595,7.507,31.487,7.507   c20.955,0,40.614-9.29,53.954-25.456C537.431,298.306,542.76,277.063,538.709,256.144z M510.231,303.004   c-15.122,18.345-42.306,24.034-63.405,13.34c-5.923-3.007-12.908-2.485-18.273,1.296c-5.383,3.798-8.209,10.243-7.363,16.796   c4.879,37.59,14.042,74.603,27.22,110.014c1.548,4.195-0.774,8.984-5.185,10.676c-35.321,13.628-72.281,23.025-109.69,28.624   c4.249-9.253,6.409-19.083,6.409-29.236c0-18.885-7.417-36.581-20.865-49.831c-13.196-12.98-30.586-20.091-49.057-20.091   c-0.378,0-0.756,0-1.098,0.018c-18.453,0.288-35.843,7.975-48.985,21.621c-13.16,13.664-20.181,31.342-19.803,49.813   c0.198,9.631,2.376,18.939,6.535,27.058c-37.554-4.951-74.513-14.348-109.834-27.976c-4.411-1.693-6.733-6.481-5.185-10.658   c13.196-35.429,22.341-72.443,27.22-110.032c0.846-6.553-1.98-12.979-7.363-16.778c-5.383-3.78-12.35-4.266-18.273-1.296   c-21.045,10.693-48.229,5.041-63.387-13.322c-9.902-12.007-13.862-27.85-10.838-43.476c3.871-20.163,20.055-36.383,40.236-40.398   c11.9-2.358,23.655-0.756,34.097,4.555c5.815,2.953,12.782,2.467,18.129-1.296c5.419-3.816,8.245-10.261,7.399-16.85   c-4.879-37.59-14.042-74.603-27.22-110.014c-1.548-4.195,0.774-8.984,5.185-10.676c35.321-13.61,72.263-23.025,109.672-28.606   c-4.249,9.253-6.409,19.083-6.409,29.236c0,18.885,7.417,36.581,20.865,49.831c13.466,13.25,31.72,20.757,50.173,20.073   c18.453-0.288,35.843-7.975,48.985-21.603c13.16-13.664,20.181-31.342,19.803-49.813c-0.198-9.649-2.376-18.957-6.535-27.076   c37.554,4.951,74.513,14.348,109.834,27.976c4.411,1.693,6.733,6.481,5.185,10.658c-13.196,35.411-22.341,72.443-27.22,110.014   c-0.846,6.589,1.98,13.033,7.399,16.85c5.329,3.762,12.26,4.284,18.129,1.296c10.46-5.329,22.197-6.913,34.079-4.555h0.018   c20.163,3.979,36.329,20.217,40.236,40.398C524.075,275.172,520.132,290.996,510.231,303.004z"
       id="path7271"
       style="fill:#800080" /></g><g
     id="g7273"
     style="fill:#800080"
     inkscape:export-xdpi="5.2574439"
     inkscape:export-ydpi="5.2574439" /><g
     id="g7275"
     style="fill:#800080"
     inkscape:export-xdpi="5.2574439"
     inkscape:export-ydpi="5.2574439" /><g
     id="g7277"
     style="fill:#800080"
     inkscape:export-xdpi="5.2574439"
     inkscape:export-ydpi="5.2574439" /><g
     id="g7279"
     style="fill:#800080"
     inkscape:export-xdpi="5.2574439"
     inkscape:export-ydpi="5.2574439" /><g
     id="g7281"
     style="fill:#800080"
     inkscape:export-xdpi="5.2574439"
     inkscape:export-ydpi="5.2574439" /><g
     id="g7283"
     style="fill:#800080"
     inkscape:export-xdpi="5.2574439"
     inkscape:export-ydpi="5.2574439" /><g
     id="g7285"
     style="fill:#800080"
     inkscape:export-xdpi="5.2574439"
     inkscape:export-ydpi="5.2574439" /><g
     id="g7287"
     style="fill:#800080"
     inkscape:export-xdpi="5.2574439"
     inkscape:export-ydpi="5.2574439" /><g
     id="g7289"
     style="fill:#800080"
     inkscape:export-xdpi="5.2574439"
     inkscape:export-ydpi="5.2574439" /><g
     id="g7291"
     style="fill:#800080"
     inkscape:export-xdpi="5.2574439"
     inkscape:export-ydpi="5.2574439" /><g
     id="g7293"
     style="fill:#800080"
     inkscape:export-xdpi="5.2574439"
     inkscape:export-ydpi="5.2574439" /><g
     id="g7295"
     style="fill:#800080"
     inkscape:export-xdpi="5.2574439"
     inkscape:export-ydpi="5.2574439" /><g
     id="g7297"
     style="fill:#800080"
     inkscape:export-xdpi="5.2574439"
     inkscape:export-ydpi="5.2574439" /><g
     id="g7299"
     style="fill:#800080"
     inkscape:export-xdpi="5.2574439"
     inkscape:export-ydpi="5.2574439" /><g
     id="g7301"
     style="fill:#800080"
     inkscape:export-xdpi="5.2574439"
     inkscape:export-ydpi="5.2574439" /><path
     style="fill:#ffffff;fill-opacity:1"
     d="m 191.30052,480.39835 c -27.78169,-4.71929 -53.13821,-11.23511 -80.71401,-20.74093 -11.680513,-4.02646 -15.014575,-5.52213 -16.850085,-7.559 -1.258556,-1.39662 -2.288284,-3.21206 -2.288284,-4.03431 0,-0.82224 1.145113,-4.84163 2.544695,-8.93198 11.151554,-32.59096 17.394734,-56.66844 22.525664,-86.87258 3.88079,-22.84488 3.28094,-28.05029 -3.91602,-33.98263 -6.00503,-4.94986 -12.663292,-5.3828 -21.38376,-1.39043 -19.065205,8.72834 -42.364925,4.34927 -57.64353,-10.83383 -10.173627,-10.11003 -14.859819,-21.52656 -14.859819,-36.20159 0,-14.64086 4.659701,-25.96032 14.936896,-36.28508 15.320773,-15.39168 38.556315,-19.3071 58.760094,-9.90167 11.356909,5.28696 23.801829,-0.29334 26.358369,-11.8191 0.58274,-2.62716 0.29924,-6.78841 -1.1338,-16.64207 -3.94613,-27.13387 -10.71208,-55.22361 -20.161277,-83.70224 -6.24387,-18.818189 -6.284181,-18.995953 -4.94459,-21.805102 0.74283,-1.557732 2.506908,-3.430189 3.920173,-4.161017 4.410344,-2.28068 38.891234,-13.454995 52.412024,-16.985313 18.84435,-4.920311 55.38789,-12.357229 56.28969,-11.455426 0.12431,0.124317 -0.70518,3.158427 -1.84333,6.742466 -2.84787,8.968023 -3.96444,17.855221 -3.32964,26.501924 1.79771,24.486658 16.19228,46.343378 37.90763,57.558918 11.53432,5.95725 18.242,7.51611 32.04667,7.44766 10.14092,-0.0503 12.59845,-0.34571 18.97816,-2.28145 8.68165,-2.6342 14.15318,-5.27469 21.02816,-10.14792 6.34227,-4.49563 16.52956,-15.31572 20.20018,-21.45497 10.54102,-17.63024 12.93882,-39.65176 6.30883,-57.940704 -1.07231,-2.957992 -1.80215,-5.52567 -1.62188,-5.705951 0.50809,-0.508084 22.00175,3.038927 34.95893,5.769129 21.39393,4.507907 49.80392,12.780716 68.7944,20.032493 6.81878,2.603847 9.83935,5.259214 9.83935,8.649732 0,1.058294 -2.07446,8.028671 -4.6099,15.489721 -9.75202,28.69725 -15.8733,53.19131 -20.74679,83.01734 -2.54231,15.55913 -2.64829,20.66914 -0.51471,24.81704 4.94061,9.60507 14.57215,12.52471 25.70898,7.79326 8.35776,-3.55077 13.88851,-4.67918 22.62921,-4.61692 14.1958,0.10111 25.50748,4.92344 35.79551,15.26013 27.65236,27.78318 15.26722,73.99342 -22.89791,85.43452 -3.49783,1.04857 -7.73307,1.49592 -14.14576,1.49415 -8.29032,-0.002 -9.85906,-0.26187 -16.64206,-2.75369 -11.41179,-4.19226 -14.44793,-4.72953 -19.2031,-3.39817 -4.89314,1.36999 -10.47467,6.59115 -12.00586,11.23069 -3.32202,10.06581 7.46705,62.83225 21.29314,104.13905 2.93659,8.77335 5.33925,16.5255 5.33925,17.227 0,3.02471 -2.12031,5.60889 -6.16791,7.51731 -6.45781,3.04481 -30.46043,10.92553 -47.35518,15.548 -14.28139,3.90745 -46.61762,10.86403 -56.04978,12.05814 l -4.31182,0.54589 1.98183,-6.24082 c 3.07273,-9.6761 4.00556,-16.63816 3.47536,-25.93783 -0.60735,-10.65248 -2.30304,-17.26208 -6.8821,-26.82546 -11.67292,-24.37901 -35.41646,-39.44283 -62.34443,-39.55374 -10.05801,-0.0414 -17.04445,1.17224 -25.49934,4.42966 -20.42389,7.86874 -36.32276,25.29701 -42.798,46.915 -4.07312,13.59834 -2.88376,33.98816 2.60128,44.59505 0.68794,1.33033 0.96034,2.38754 0.60535,2.34935 -0.35499,-0.0382 -6.82381,-1.11895 -14.37515,-2.4017 z"
     id="path8111"
     inkscape:connector-curvature="0" /><path
     style="fill:#ffffff;fill-opacity:1"
     d="m 203.78207,482.41344 c -0.68648,-0.14464 -6.30318,-1.06911 -12.48155,-2.05436 -25.07629,-3.99887 -51.28852,-10.66107 -78.342,-19.91172 -13.923338,-4.76093 -17.34062,-6.24348 -19.222095,-8.33929 -1.258556,-1.40194 -2.288284,-3.17519 -2.288284,-3.94057 0,-0.76537 2.425723,-8.74277 5.390496,-17.72755 14.285233,-43.29152 24.648213,-94.08525 21.278483,-104.29562 -3.4639,-10.49574 -14.7515,-14.4624 -26.616417,-9.35349 -28.593393,12.31203 -60.460688,-1.65377 -70.503642,-30.89813 -2.832731,-8.24871 -3.194917,-21.78837 -0.796383,-29.77135 7.501846,-24.96821 31.331888,-40.60763 56.533545,-37.1024 3.510081,0.48821 9.746379,2.20232 13.85844,3.80914 8.445108,3.3 12.918907,3.64192 17.920737,1.36964 3.5806,-1.62664 8.35418,-6.50462 9.61779,-9.82814 1.29398,-3.40346 0.88407,-10.90398 -1.33509,-24.42926 -4.587,-27.95664 -10.81704,-52.97322 -20.081009,-80.6348 -5.905756,-17.634171 -6.067326,-19.559971 -1.901948,-22.669874 4.937892,-3.686669 45.362577,-16.354692 70.692187,-22.153052 15.46715,-3.540684 39.04179,-7.994382 39.56214,-7.474039 0.17133,0.171329 -0.58151,3.123656 -1.67299,6.560726 -11.04952,34.795154 4.92399,70.725429 38.29742,86.144899 19.36944,8.94922 43.14577,7.71115 62.77277,-3.26868 8.53338,-4.77379 21.60112,-17.84153 26.37492,-26.37492 10.02012,-17.91146 11.99144,-37.382447 5.68639,-56.165075 -1.0754,-3.203597 -1.81584,-5.966348 -1.64543,-6.139448 0.51204,-0.520088 13.11675,1.535723 30.32954,4.946707 23.92252,4.740621 53.25953,13.059697 72.99866,20.700173 7.06199,2.733506 10.21166,5.414238 10.21166,8.691301 0,0.969677 -2.76794,10.186732 -6.15097,20.482342 -9.00889,27.4168 -15.0491,52.18778 -19.27491,79.04677 -2.41428,15.34499 -2.49441,19.29155 -0.48167,23.72208 4.43704,9.76697 15.09628,12.82278 26.73965,7.6658 7.22755,-3.20117 13.08468,-4.3282 22.05074,-4.24301 14.56725,0.13841 26.91307,5.70202 36.94355,16.64853 14.29011,15.59513 17.3468,37.86948 7.90012,57.56889 -2.31365,4.82472 -4.62025,7.9404 -9.39338,12.68826 -7.00922,6.9721 -11.59631,9.84116 -20.88848,13.06498 -5.39376,1.87131 -7.59601,2.16278 -16.22602,2.14755 -9.23963,-0.0163 -10.51337,-0.21968 -17.05811,-2.72366 -10.19181,-3.89935 -13.88154,-4.61712 -17.97,-3.49575 -5.07923,1.39311 -9.83672,5.23756 -11.99261,9.69101 -1.66438,3.43815 -1.83193,4.72325 -1.39304,10.68409 1.73838,23.60959 11.55635,64.54498 25.18873,105.02281 2.46967,7.33306 2.34102,10.02282 -0.61094,12.77298 -3.67159,3.4206 -38.01239,14.7113 -63.53486,20.88923 -19.31981,4.67651 -46.55648,9.87463 -47.37678,9.04187 -0.1764,-0.17908 0.55915,-2.94672 1.63455,-6.15032 8.80508,-26.23016 1.64673,-53.80119 -19.05674,-73.39875 -7.68125,-7.27093 -17.04822,-12.7313 -27.56449,-16.06839 -8.95277,-2.84095 -25.80155,-3.25611 -35.74678,-0.88083 -26.18292,6.25345 -47.24944,27.9703 -52.93345,54.56753 -2.40792,11.26742 -0.87021,28.84043 3.36061,38.40488 0.87982,1.98898 1.33989,3.5729 1.02239,3.51981 -0.31751,-0.0531 -1.13896,-0.21487 -1.82545,-0.35952 z"
     id="path8113"
     inkscape:connector-curvature="0" /></svg>